<?xml version="1.0" encoding="utf-8"?>
<!-- Generator: Adobe Illustrator 22.0.1, SVG Export Plug-In . SVG Version: 6.00 Build 0)  -->
<svg version="1.1" id="Layer_1" xmlns="http://www.w3.org/2000/svg" xmlns:xlink="http://www.w3.org/1999/xlink" x="0px" y="0px"
	 viewBox="0 0 432 288" style="enable-background:new 0 0 432 288;" xml:space="preserve">
<style type="text/css">
	.st0{fill:none;}
	.st1{clip-path:url(#SVGID_2_);fill:none;stroke:#FFFFFF;stroke-linecap:round;stroke-linejoin:round;}
	.st2{fill:#FFFFFF;}
	.st3{clip-path:url(#SVGID_4_);fill:none;stroke:#FFFFFF;stroke-linecap:round;stroke-linejoin:round;}
	.st4{clip-path:url(#SVGID_6_);fill:none;stroke:#FFFFFF;stroke-linecap:round;stroke-linejoin:round;}
	.st5{clip-path:url(#SVGID_8_);fill:none;stroke:#FFFFFF;stroke-linecap:round;stroke-linejoin:round;}
	.st6{clip-path:url(#SVGID_10_);fill:none;stroke:#FFFFFF;stroke-linecap:round;stroke-linejoin:round;}
	.st7{clip-path:url(#SVGID_12_);fill:#5875A4;stroke:#4C4C4C;stroke-width:1.75;}
	.st8{clip-path:url(#SVGID_14_);fill:none;stroke:#4C4C4C;stroke-width:1.75;stroke-linecap:round;stroke-linejoin:round;}
	.st9{clip-path:url(#SVGID_16_);fill:none;stroke:#4C4C4C;stroke-width:1.75;stroke-linecap:round;stroke-linejoin:round;}
	.st10{clip-path:url(#SVGID_18_);fill:none;stroke:#4C4C4C;stroke-width:1.75;stroke-linecap:round;stroke-linejoin:round;}
	.st11{clip-path:url(#SVGID_20_);fill:none;stroke:#4C4C4C;stroke-width:1.75;stroke-linecap:round;stroke-linejoin:round;}
	.st12{clip-path:url(#SVGID_22_);}
	.st13{fill:#4C4C4C;}
	.st14{clip-path:url(#SVGID_24_);fill:none;stroke:#4C4C4C;stroke-width:1.75;stroke-linecap:round;stroke-linejoin:round;}
</style>
<g id="figure_1">
	<g id="patch_1">
		<path class="st0" d="M0,288h432V0H0V288z"/>
	</g>
	<g id="axes_1">
		<g id="patch_2">
			<path class="st0" d="M54,252h334.8V34.6H54V252z"/>
		</g>
		<g id="matplotlib.axis_1">
			<g id="xtick_1">
				<g id="line2d_1">
					<g>
						<defs>
							<rect id="SVGID_1_" x="54" y="34.6" width="334.8" height="217.4"/>
						</defs>
						<clipPath id="SVGID_2_">
							<use xlink:href="#SVGID_1_"  style="overflow:visible;"/>
						</clipPath>
						<path class="st1" d="M113.4,252V34.6"/>
					</g>
				</g>
				<g id="line2d_2">
				</g>
				<g id="text_1">
					<g transform="translate(107.839063 266.157812)scale(0.1 -0.1)">
						<g>
							<path id="ArialMT-31" class="st2" d="M37.2,0h-8.8v56c-2.1-2-4.9-4-8.3-6s-6.5-3.5-9.3-4.5v8.5c4.9,2.3,9.2,5.1,12.9,8.4
								c3.7,3.3,6.3,6.5,7.8,9.6h5.7V0z"/>
						</g>
						<g>
							<path id="ArialMT-30" class="st2" d="M59.8,35.3c0,8.5,0.9,15.3,2.6,20.4c1.7,5.2,4.3,9.1,7.8,11.9c3.4,2.8,7.8,4.2,13,4.2
								c3.8,0,7.2-0.8,10.1-2.3c2.9-1.5,5.3-3.8,7.2-6.7c1.9-2.9,3.4-6.5,4.5-10.6c1.1-4.2,1.6-9.8,1.6-16.9
								c0-8.4-0.9-15.2-2.6-20.3c-1.7-5.2-4.3-9.1-7.7-12c-3.4-2.8-7.8-4.2-13-4.2c-6.9,0-12.3,2.5-16.2,7.4
								C62.1,12.2,59.8,21.9,59.8,35.3z M68.8,35.3c0-11.8,1.4-19.6,4.1-23.5C75.7,7.9,79.1,6,83.1,6c4,0,7.4,2,10.2,5.9
								s4.1,11.7,4.1,23.4c0,11.8-1.4,19.6-4.1,23.5c-2.8,3.9-6.2,5.8-10.3,5.8c-4,0-7.3-1.7-9.7-5.1C70.3,55.1,68.8,47.1,68.8,35.3
								z"/>
						</g>
					</g>
				</g>
			</g>
			<g id="xtick_2">
				<g id="line2d_3">
					<g>
						<defs>
							<rect id="SVGID_3_" x="54" y="34.6" width="334.8" height="217.4"/>
						</defs>
						<clipPath id="SVGID_4_">
							<use xlink:href="#SVGID_3_"  style="overflow:visible;"/>
						</clipPath>
						<path class="st3" d="M177.2,252V34.6"/>
					</g>
				</g>
				<g id="line2d_4">
				</g>
				<g id="text_2">
					<g transform="translate(171.59349 266.157812)scale(0.1 -0.1)">
						<g>
							<path id="ArialMT-32" class="st2" d="M50.3,8.5V0H3C3,2.1,3.3,4.2,4,6.1c1.2,3.2,3.1,6.4,5.8,9.5c2.7,3.1,6.5,6.7,11.5,10.8
								c7.8,6.4,13,11.4,15.8,15.2c2.7,3.7,4.1,7.3,4.1,10.6c0,3.5-1.2,6.4-3.8,8.8c-2.5,2.4-5.7,3.6-9.7,3.6
								c-4.2,0-7.6-1.3-10.2-3.8c-2.5-2.5-3.8-6-3.9-10.5l-9,0.9c0.6,6.7,2.9,11.9,7,15.4c4,3.5,9.5,5.3,16.3,5.3
								c6.9,0,12.3-1.9,16.3-5.7c4-3.8,6-8.5,6-14.2c0-2.9-0.6-5.7-1.8-8.5c-1.2-2.8-3.1-5.7-5.8-8.7s-7.2-7.3-13.5-12.6
								c-5.3-4.4-8.7-7.4-10.2-9c-1.5-1.6-2.7-3.2-3.7-4.8H50.3z"/>
						</g>
						<g>
							<path id="ArialMT-30_1_" class="st2" d="M59.8,35.3c0,8.5,0.9,15.3,2.6,20.4c1.7,5.2,4.3,9.1,7.8,11.9
								c3.4,2.8,7.8,4.2,13,4.2c3.8,0,7.2-0.8,10.1-2.3c2.9-1.5,5.3-3.8,7.2-6.7c1.9-2.9,3.4-6.5,4.5-10.6c1.1-4.2,1.6-9.8,1.6-16.9
								c0-8.4-0.9-15.2-2.6-20.3c-1.7-5.2-4.3-9.1-7.7-12c-3.4-2.8-7.8-4.2-13-4.2c-6.9,0-12.3,2.5-16.2,7.4
								C62.1,12.2,59.8,21.9,59.8,35.3z M68.8,35.3c0-11.8,1.4-19.6,4.1-23.5C75.7,7.9,79.1,6,83.1,6c4,0,7.4,2,10.2,5.9
								s4.1,11.7,4.1,23.4c0,11.8-1.4,19.6-4.1,23.5c-2.8,3.9-6.2,5.8-10.3,5.8c-4,0-7.3-1.7-9.7-5.1C70.3,55.1,68.8,47.1,68.8,35.3
								z"/>
						</g>
					</g>
				</g>
			</g>
			<g id="xtick_3">
				<g id="line2d_5">
					<g>
						<defs>
							<rect id="SVGID_5_" x="54" y="34.6" width="334.8" height="217.4"/>
						</defs>
						<clipPath id="SVGID_6_">
							<use xlink:href="#SVGID_5_"  style="overflow:visible;"/>
						</clipPath>
						<path class="st4" d="M240.9,252V34.6"/>
					</g>
				</g>
				<g id="line2d_6">
				</g>
				<g id="text_3">
					<g transform="translate(235.347917 266.157812)scale(0.1 -0.1)">
						<g>
							<path id="ArialMT-33" class="st2" d="M4.2,18.9l8.8,1.2c1-5,2.7-8.6,5.2-10.8S23.5,6,27,6c4.1,0,7.6,1.4,10.5,4.3
								c2.9,2.9,4.3,6.4,4.3,10.7c0,4-1.3,7.4-4,10c-2.6,2.6-6,3.9-10.1,3.9c-1.7,0-3.7-0.3-6.2-1l1,7.7c0.6-0.1,1.1-0.1,1.4-0.1
								c3.8,0,7.1,1,10.1,2.9c3,2,4.5,5,4.5,9c0,3.2-1.1,5.9-3.3,8c-2.2,2.1-5,3.2-8.4,3.2c-3.4,0-6.3-1.1-8.5-3.2
								c-2.3-2.1-3.7-5.4-4.4-9.7l-8.8,1.6c1.1,5.9,3.5,10.4,7.3,13.7c3.8,3.2,8.6,4.9,14.2,4.9c3.9,0,7.5-0.8,10.8-2.5
								c3.3-1.7,5.8-4,7.5-6.9c1.8-2.9,2.6-6,2.6-9.2c0-3.1-0.8-5.9-2.5-8.4c-1.7-2.5-4.1-4.6-7.4-6.1c4.2-1,7.5-3,9.9-6.1
								c2.3-3.1,3.5-6.9,3.5-11.5c0-6.2-2.3-11.5-6.8-15.9C39.7,0.9,33.9-1.3,27-1.3c-6.3,0-11.5,1.9-15.7,5.6
								C7.2,8.1,4.8,12.9,4.2,18.9z"/>
						</g>
						<g>
							<path id="ArialMT-30_2_" class="st2" d="M59.8,35.3c0,8.5,0.9,15.3,2.6,20.4c1.7,5.2,4.3,9.1,7.8,11.9
								c3.4,2.8,7.8,4.2,13,4.2c3.8,0,7.2-0.8,10.1-2.3c2.9-1.5,5.3-3.8,7.2-6.7c1.9-2.9,3.4-6.5,4.5-10.6c1.1-4.2,1.6-9.8,1.6-16.9
								c0-8.4-0.9-15.2-2.6-20.3c-1.7-5.2-4.3-9.1-7.7-12c-3.4-2.8-7.8-4.2-13-4.2c-6.9,0-12.3,2.5-16.2,7.4
								C62.1,12.2,59.8,21.9,59.8,35.3z M68.8,35.3c0-11.8,1.4-19.6,4.1-23.5C75.7,7.9,79.1,6,83.1,6c4,0,7.4,2,10.2,5.9
								s4.1,11.7,4.1,23.4c0,11.8-1.4,19.6-4.1,23.5c-2.8,3.9-6.2,5.8-10.3,5.8c-4,0-7.3-1.7-9.7-5.1C70.3,55.1,68.8,47.1,68.8,35.3
								z"/>
						</g>
					</g>
				</g>
			</g>
			<g id="xtick_4">
				<g id="line2d_7">
					<g>
						<defs>
							<rect id="SVGID_7_" x="54" y="34.6" width="334.8" height="217.4"/>
						</defs>
						<clipPath id="SVGID_8_">
							<use xlink:href="#SVGID_7_"  style="overflow:visible;"/>
						</clipPath>
						<path class="st5" d="M304.7,252V34.6"/>
					</g>
				</g>
				<g id="line2d_8">
				</g>
				<g id="text_4">
					<g transform="translate(299.102345 266.157812)scale(0.1 -0.1)">
						<g>
							<path id="ArialMT-34" class="st2" d="M32.3,0v17.1H1.3v8.1l32.7,46.4h7.2V25.2h9.7v-8.1h-9.7V0H32.3z M32.3,25.2v32.3
								L9.9,25.2H32.3z"/>
						</g>
						<g>
							<path id="ArialMT-30_3_" class="st2" d="M59.8,35.3c0,8.5,0.9,15.3,2.6,20.4c1.7,5.2,4.3,9.1,7.8,11.9
								c3.4,2.8,7.8,4.2,13,4.2c3.8,0,7.2-0.8,10.1-2.3c2.9-1.5,5.3-3.8,7.2-6.7c1.9-2.9,3.4-6.5,4.5-10.6c1.1-4.2,1.6-9.8,1.6-16.9
								c0-8.4-0.9-15.2-2.6-20.3c-1.7-5.2-4.3-9.1-7.7-12c-3.4-2.8-7.8-4.2-13-4.2c-6.9,0-12.3,2.5-16.2,7.4
								C62.1,12.2,59.8,21.9,59.8,35.3z M68.8,35.3c0-11.8,1.4-19.6,4.1-23.5C75.7,7.9,79.1,6,83.1,6c4,0,7.4,2,10.2,5.9
								s4.1,11.7,4.1,23.4c0,11.8-1.4,19.6-4.1,23.5c-2.8,3.9-6.2,5.8-10.3,5.8c-4,0-7.3-1.7-9.7-5.1C70.3,55.1,68.8,47.1,68.8,35.3
								z"/>
						</g>
					</g>
				</g>
			</g>
			<g id="xtick_5">
				<g id="line2d_9">
					<g>
						<defs>
							<rect id="SVGID_9_" x="54" y="34.6" width="334.8" height="217.4"/>
						</defs>
						<clipPath id="SVGID_10_">
							<use xlink:href="#SVGID_9_"  style="overflow:visible;"/>
						</clipPath>
						<path class="st6" d="M368.4,252V34.6"/>
					</g>
				</g>
				<g id="line2d_10">
				</g>
				<g id="text_5">
					<g transform="translate(362.856772 266.157812)scale(0.1 -0.1)">
						<g>
							<path id="ArialMT-35" class="st2" d="M4.2,18.7l9.2,0.8c0.7-4.5,2.3-7.9,4.8-10.1c2.5-2.3,5.5-3.4,9-3.4
								c4.2,0,7.8,1.6,10.7,4.8c2.9,3.2,4.4,7.4,4.4,12.7c0,5-1.4,9-4.2,11.9c-2.8,2.9-6.5,4.4-11.1,4.4c-2.8,0-5.4-0.6-7.7-1.9
								c-2.3-1.3-4.1-2.9-5.4-5l-8.2,1.1l6.9,36.8h35.6v-8.4H19.7L15.8,43c4.3,3,8.8,4.5,13.5,4.5c6.2,0,11.5-2.2,15.8-6.5
								c4.3-4.3,6.5-9.9,6.5-16.7c0-6.5-1.9-12.1-5.7-16.8c-4.6-5.8-10.9-8.7-18.8-8.7c-6.5,0-11.8,1.8-16,5.5
								C7.1,7.9,4.7,12.7,4.2,18.7z"/>
						</g>
						<g>
							<path id="ArialMT-30_4_" class="st2" d="M59.8,35.3c0,8.5,0.9,15.3,2.6,20.4c1.7,5.2,4.3,9.1,7.8,11.9
								c3.4,2.8,7.8,4.2,13,4.2c3.8,0,7.2-0.8,10.1-2.3c2.9-1.5,5.3-3.8,7.2-6.7c1.9-2.9,3.4-6.5,4.5-10.6c1.1-4.2,1.6-9.8,1.6-16.9
								c0-8.4-0.9-15.2-2.6-20.3c-1.7-5.2-4.3-9.1-7.7-12c-3.4-2.8-7.8-4.2-13-4.2c-6.9,0-12.3,2.5-16.2,7.4
								C62.1,12.2,59.8,21.9,59.8,35.3z M68.8,35.3c0-11.8,1.4-19.6,4.1-23.5C75.7,7.9,79.1,6,83.1,6c4,0,7.4,2,10.2,5.9
								s4.1,11.7,4.1,23.4c0,11.8-1.4,19.6-4.1,23.5c-2.8,3.9-6.2,5.8-10.3,5.8c-4,0-7.3-1.7-9.7-5.1C70.3,55.1,68.8,47.1,68.8,35.3
								z"/>
						</g>
					</g>
				</g>
			</g>
		</g>
		<g id="matplotlib.axis_2">
			<g id="ytick_1">
				<g id="line2d_11">
				</g>
			</g>
		</g>
		<g id="patch_3">
			<g>
				<defs>
					<rect id="SVGID_11_" x="54" y="34.6" width="334.8" height="217.4"/>
				</defs>
				<clipPath id="SVGID_12_">
					<use xlink:href="#SVGID_11_"  style="overflow:visible;"/>
				</clipPath>
				<path class="st7" d="M134.7,56.3v174h68.7v-174H134.7z"/>
			</g>
		</g>
		<g id="line2d_12">
			<g>
				<defs>
					<rect id="SVGID_13_" x="54" y="34.6" width="334.8" height="217.4"/>
				</defs>
				<clipPath id="SVGID_14_">
					<use xlink:href="#SVGID_13_"  style="overflow:visible;"/>
				</clipPath>
				<path class="st8" d="M134.7,143.3H69.2"/>
			</g>
		</g>
		<g id="line2d_13">
			<g>
				<defs>
					<rect id="SVGID_15_" x="54" y="34.6" width="334.8" height="217.4"/>
				</defs>
				<clipPath id="SVGID_16_">
					<use xlink:href="#SVGID_15_"  style="overflow:visible;"/>
				</clipPath>
				<path class="st9" d="M203.5,143.3h102.3"/>
			</g>
		</g>
		<g id="line2d_14">
			<g>
				<defs>
					<rect id="SVGID_17_" x="54" y="34.6" width="334.8" height="217.4"/>
				</defs>
				<clipPath id="SVGID_18_">
					<use xlink:href="#SVGID_17_"  style="overflow:visible;"/>
				</clipPath>
				<path class="st10" d="M69.2,99.8v87"/>
			</g>
		</g>
		<g id="line2d_15">
			<g>
				<defs>
					<rect id="SVGID_19_" x="54" y="34.6" width="334.8" height="217.4"/>
				</defs>
				<clipPath id="SVGID_20_">
					<use xlink:href="#SVGID_19_"  style="overflow:visible;"/>
				</clipPath>
				<path class="st11" d="M305.7,99.8v87"/>
			</g>
		</g>
		<g id="line2d_16">
			<g>
				<defs>
					<rect id="SVGID_21_" x="54" y="34.6" width="334.8" height="217.4"/>
				</defs>
				<clipPath id="SVGID_22_">
					<use xlink:href="#SVGID_21_"  style="overflow:visible;"/>
				</clipPath>
				<g class="st12">
					<g>
						<path id="mddd1def77f" class="st13" d="M357.4,146.8l2.1-3.5l-2.1-3.5l-2.1,3.5L357.4,146.8z"/>
					</g>
					<g>
						<path id="mddd1def77f_1_" class="st13" d="M332.1,146.8l2.1-3.5l-2.1-3.5l-2.1,3.5L332.1,146.8z"/>
					</g>
					<g>
						<path id="mddd1def77f_2_" class="st13" d="M312.3,146.8l2.1-3.5l-2.1-3.5l-2.1,3.5L312.3,146.8z"/>
					</g>
					<g>
						<path id="mddd1def77f_3_" class="st13" d="M356.8,146.8l2.1-3.5l-2.1-3.5l-2.1,3.5L356.8,146.8z"/>
					</g>
					<g>
						<path id="mddd1def77f_4_" class="st13" d="M373.6,146.8l2.1-3.5l-2.1-3.5l-2.1,3.5L373.6,146.8z"/>
					</g>
					<g>
						<path id="mddd1def77f_5_" class="st13" d="M338.8,146.8l2.1-3.5l-2.1-3.5l-2.1,3.5L338.8,146.8z"/>
					</g>
					<g>
						<path id="mddd1def77f_6_" class="st13" d="M308.2,146.8l2.1-3.5l-2.1-3.5l-2.1,3.5L308.2,146.8z"/>
					</g>
					<g>
						<path id="mddd1def77f_7_" class="st13" d="M324.5,146.8l2.1-3.5l-2.1-3.5l-2.1,3.5L324.5,146.8z"/>
					</g>
					<g>
						<path id="mddd1def77f_8_" class="st13" d="M357.8,146.8l2.1-3.5l-2.1-3.5l-2.1,3.5L357.8,146.8z"/>
					</g>
				</g>
			</g>
		</g>
		<g id="line2d_17">
			<g>
				<defs>
					<rect id="SVGID_23_" x="54" y="34.6" width="334.8" height="217.4"/>
				</defs>
				<clipPath id="SVGID_24_">
					<use xlink:href="#SVGID_23_"  style="overflow:visible;"/>
				</clipPath>
				<path class="st14" d="M163.1,56.3v174"/>
			</g>
		</g>
		<g id="patch_4">
			<path class="st0" d="M54,252V34.6"/>
		</g>
		<g id="patch_5">
			<path class="st0" d="M388.8,252V34.6"/>
		</g>
		<g id="patch_6">
			<path class="st0" d="M54,252h334.8"/>
		</g>
		<g id="patch_7">
			<path class="st0" d="M54,34.6h334.8"/>
		</g>
	</g>
</g>
</svg>
